<svg width="301" height="301" viewBox="0 0 301 301" fill="none" xmlns="http://www.w3.org/2000/svg">
<circle cx="150.5" cy="150.5" r="150.5" fill="#1E1BA4"/>
<path d="M301 150.5C301 163.652 299.276 176.748 295.872 189.452L150.5 150.5H301Z" fill="#1890FF"/>
<path d="M150.5 -6.57856e-06C163.653 -7.15347e-06 176.748 1.72407 189.453 5.12815L150.5 150.5L150.5 -6.57856e-06Z" fill="#1890FF"/>
<path d="M0.000536159 150.5C0.000535009 137.348 1.72461 124.252 5.1287 111.548L150.501 150.5L0.000536159 150.5Z" fill="#1890FF"/>
<path d="M150.501 301C137.348 301 124.253 299.276 111.548 295.872L150.501 150.5L150.501 301Z" fill="#1890FF"/>
<path d="M166.247 23.4794L165.176 23.3308L159.395 11.4723L157.889 22.3195L156.81 22.1697L158.569 9.49427L159.649 9.64409L165.437 21.5125L166.944 10.6566L168.006 10.804L166.247 23.4794ZM169.323 18.9638C169.448 18.0584 169.735 17.2672 170.184 16.59C170.639 15.9137 171.213 15.4196 171.907 15.1077C172.608 14.7909 173.365 14.6888 174.177 14.8016C175.431 14.9756 176.385 15.5576 177.04 16.5477C177.696 17.532 177.924 18.7496 177.722 20.2006L177.692 20.4182C177.566 21.3294 177.275 22.1261 176.819 22.8082C176.37 23.4853 175.799 23.9769 175.106 24.283C174.413 24.589 173.657 24.6853 172.839 24.5717C171.591 24.3985 170.636 23.8194 169.974 22.8343C169.319 21.8442 169.092 20.6237 169.294 19.1727L169.323 18.9638ZM170.327 19.3961C170.171 20.522 170.333 21.488 170.812 22.294C171.299 23.095 172.015 23.5612 172.961 23.6924C173.901 23.8229 174.711 23.5686 175.392 22.9295C176.078 22.2854 176.504 21.3714 176.668 20.1874L176.696 19.9872C176.796 19.2675 176.754 18.5902 176.57 17.9554C176.386 17.3206 176.076 16.8072 175.639 16.4153C175.203 16.0177 174.675 15.7758 174.054 15.6896C173.125 15.5607 172.317 15.8212 171.629 16.4711C170.943 17.1152 170.517 18.0264 170.354 19.2045L170.327 19.3961Z" fill="black"/>
<path d="M134.323 280.566L135.397 280.692L141.425 292.427L142.703 281.551L143.785 281.678L142.292 294.387L141.21 294.26L135.174 282.516L133.895 293.401L132.83 293.276L134.323 280.566ZM131.343 285.145C131.236 286.053 130.965 286.85 130.531 287.536C130.09 288.222 129.527 288.728 128.839 289.055C128.145 289.386 127.391 289.504 126.576 289.408C125.32 289.261 124.353 288.699 123.677 287.722C123.001 286.752 122.748 285.54 122.919 284.085L122.944 283.866C123.052 282.953 123.326 282.15 123.767 281.459C124.202 280.772 124.762 280.269 125.449 279.948C126.135 279.628 126.889 279.516 127.71 279.612C128.961 279.759 129.928 280.318 130.61 281.289C131.286 282.265 131.538 283.481 131.367 284.936L131.343 285.145ZM130.329 284.734C130.462 283.605 130.28 282.643 129.783 281.847C129.28 281.056 128.555 280.605 127.606 280.494C126.663 280.383 125.859 280.654 125.192 281.308C124.519 281.966 124.112 282.889 123.973 284.076L123.949 284.277C123.864 284.998 123.921 285.674 124.118 286.305C124.315 286.936 124.636 287.443 125.081 287.825C125.525 288.214 126.058 288.445 126.681 288.518C127.612 288.627 128.415 288.35 129.089 287.686C129.762 287.027 130.168 286.107 130.307 284.926L130.329 284.734Z" fill="black"/>
<path d="M276.663 168.268L276.722 167.189L288.056 160.437L277.121 159.843L277.18 158.755L289.958 159.449L289.899 160.537L278.555 167.297L289.499 167.891L289.441 168.962L276.663 168.268ZM281.42 170.956C282.332 171.005 283.145 171.225 283.857 171.616C284.569 172.013 285.11 172.544 285.478 173.209C285.853 173.881 286.018 174.626 285.973 175.446C285.904 176.709 285.404 177.709 284.472 178.445C283.546 179.181 282.352 179.509 280.889 179.43L280.67 179.418C279.751 179.368 278.933 179.144 278.215 178.747C277.503 178.357 276.965 177.829 276.602 177.164C276.24 176.498 276.08 175.753 276.125 174.928C276.194 173.67 276.691 172.671 277.617 171.929C278.549 171.193 279.746 170.865 281.209 170.944L281.42 170.956ZM281.073 171.993C279.938 171.931 278.989 172.173 278.226 172.719C277.468 173.27 277.063 174.023 277.012 174.976C276.96 175.924 277.281 176.71 277.975 177.335C278.674 177.966 279.621 178.313 280.814 178.378L281.016 178.389C281.742 178.428 282.413 178.33 283.03 178.094C283.647 177.857 284.133 177.505 284.487 177.037C284.847 176.57 285.044 176.023 285.078 175.397C285.129 174.461 284.802 173.677 284.096 173.046C283.397 172.416 282.454 172.068 281.266 172.004L281.073 171.993Z" fill="black"/>
<path d="M20.2661 133.598L20.0658 134.66L7.94097 139.86L18.7024 141.889L18.5005 142.96L5.92526 140.588L6.12724 139.517L18.2623 134.311L7.49222 132.28L7.69095 131.226L20.2661 133.598ZM15.905 130.307C15.0068 130.137 14.2304 129.812 13.5758 129.331C12.9223 128.844 12.4566 128.246 12.1788 127.538C11.8963 126.823 11.831 126.062 11.9831 125.256C12.2176 124.012 12.8452 123.087 13.8659 122.481C14.8809 121.873 16.1081 121.705 17.5476 121.977L17.7635 122.017C18.6675 122.188 19.4491 122.517 20.1083 123.005C20.7629 123.486 21.2263 124.081 21.4983 124.788C21.7704 125.495 21.8299 126.255 21.6768 127.066C21.4433 128.304 20.8186 129.23 19.8025 129.843C18.7818 130.45 17.5518 130.617 16.1123 130.346L15.905 130.307ZM16.3855 129.324C17.5025 129.535 18.4752 129.42 19.3035 128.98C20.1272 128.533 20.6275 127.84 20.8045 126.902C20.9804 125.969 20.7657 125.147 20.1603 124.437C19.5502 123.72 18.6579 123.25 17.4833 123.029L17.2846 122.991C16.5707 122.857 15.8922 122.866 15.2492 123.019C14.6061 123.172 14.0784 123.457 13.6658 123.874C13.2475 124.29 12.9802 124.806 12.864 125.422C12.6903 126.343 12.9113 127.163 13.5271 127.882C14.1372 128.599 15.0266 129.068 16.1955 129.288L16.3855 129.324Z" fill="black"/>
<path d="M60.1506 46.9588L59.1168 39.0261L60.1176 38.2804L61.1792 47.4419L64.0571 51.3039L63.1903 51.9499L60.3123 48.0878L51.8438 44.4459L52.8728 43.6792L60.1506 46.9588ZM71.6536 45.8622C71.0053 46.3454 70.2989 46.6233 69.5346 46.696C68.775 46.7651 68.0378 46.624 67.3228 46.2725C66.6044 45.9164 65.9809 45.3836 65.4522 44.6742L65.2264 44.3711C64.6802 43.6382 64.3292 42.8731 64.1735 42.0757C64.0224 41.2748 64.0763 40.5186 64.3351 39.8068C64.5905 39.0904 65.0141 38.5117 65.6061 38.0705C66.5317 37.3808 67.501 37.1517 68.5139 37.3834C69.5281 37.6068 70.443 38.2659 71.2588 39.3606L71.6107 39.8328L66.17 43.8871L66.2908 44.0492C66.935 44.9137 67.7191 45.4511 68.6431 45.6614C69.5683 45.8634 70.4067 45.6844 71.1584 45.1242C71.6095 44.7881 71.9452 44.41 72.1656 43.99C72.3908 43.5665 72.5095 43.0688 72.5218 42.4969L73.3497 42.5048C73.3983 43.8643 72.8329 44.9835 71.6536 45.8622ZM66.1418 38.7894C65.5075 39.262 65.1452 39.8937 65.0549 40.6845C64.9693 41.4717 65.1718 42.2926 65.6625 43.1473L70.2364 39.7389L70.1681 39.6473C69.5984 38.9319 68.9447 38.491 68.2069 38.3246C67.4691 38.1583 66.7808 38.3132 66.1418 38.7894ZM79.1744 37.0242C78.8628 36.6061 78.4434 36.3962 77.916 36.3946C77.3934 36.3895 76.7413 36.5685 75.9597 36.9317C75.1746 37.2902 74.5258 37.5179 74.0134 37.6148C73.5022 37.7034 73.0552 37.6821 72.6724 37.5509C72.2943 37.4161 71.9635 37.1585 71.6799 36.7779C71.2317 36.1765 71.1137 35.4935 71.3258 34.729C71.5344 33.9597 72.0311 33.2827 72.8157 32.698C73.6661 32.0643 74.5049 31.768 75.3321 31.8093C76.1605 31.8423 76.8268 32.1971 77.331 32.8736L76.4853 33.5038C76.1527 33.0575 75.6882 32.8264 75.0917 32.8105C74.5 32.7911 73.9199 32.9932 73.3514 33.4168C72.797 33.83 72.4434 34.2871 72.2907 34.7882C72.1392 35.2811 72.2105 35.7248 72.5045 36.1195C72.7881 36.5001 73.1473 36.6928 73.5821 36.6976C74.018 36.6943 74.6696 36.5047 75.5368 36.1289C76.4086 35.7495 77.1013 35.522 77.6149 35.4462C78.1331 35.3669 78.5847 35.3994 78.9698 35.5435C79.3549 35.6877 79.6945 35.9571 79.9886 36.3518C80.4683 36.9954 80.5909 37.7042 80.3565 38.4781C80.1268 39.2485 79.5938 39.9453 78.7575 40.5685C77.8695 41.2302 76.989 41.5539 76.116 41.5395C75.2442 41.5168 74.5632 41.1767 74.073 40.5189L74.9187 39.8887C75.3192 40.3575 75.8131 40.5887 76.4002 40.5823C76.9885 40.5677 77.5975 40.3258 78.227 39.8567C78.8143 39.419 79.1926 38.9362 79.3618 38.4082C79.531 37.8802 79.4685 37.4189 79.1744 37.0242Z" fill="white"/>
<path d="M241.579 253.457L243.05 261.32L242.092 262.12L240.526 253.031L237.439 249.334L238.269 248.641L241.356 252.338L250.012 255.507L249.027 256.33L241.579 253.457ZM230.154 255.187C230.775 254.669 231.465 254.352 232.224 254.237C232.979 254.126 233.723 254.227 234.456 254.538C235.193 254.854 235.845 255.352 236.412 256.031L236.654 256.321C237.24 257.022 237.633 257.767 237.832 258.555C238.027 259.346 238.015 260.104 237.796 260.829C237.581 261.558 237.19 262.16 236.623 262.633C235.737 263.373 234.782 263.655 233.757 263.479C232.733 263.312 231.783 262.705 230.908 261.657L230.53 261.205L235.739 256.856L235.609 256.701C234.918 255.873 234.106 255.38 233.172 255.221C232.237 255.07 231.409 255.296 230.69 255.896C230.258 256.257 229.944 256.653 229.747 257.084C229.545 257.52 229.454 258.023 229.473 258.595L228.646 258.633C228.523 257.278 229.026 256.129 230.154 255.187ZM236.048 261.945C236.656 261.438 236.982 260.787 237.029 259.992C237.071 259.202 236.823 258.393 236.286 257.567L231.908 261.223L231.981 261.31C232.589 261.993 233.266 262.397 234.012 262.523C234.758 262.648 235.437 262.455 236.048 261.945ZM223.133 264.427C223.467 264.827 223.898 265.013 224.424 264.986C224.946 264.962 225.588 264.747 226.348 264.341C227.112 263.94 227.747 263.677 228.254 263.552C228.759 263.435 229.207 263.432 229.596 263.542C229.981 263.655 230.326 263.894 230.63 264.259C231.11 264.834 231.266 265.51 231.096 266.285C230.931 267.065 230.472 267.768 229.721 268.395C228.907 269.075 228.086 269.417 227.257 269.421C226.428 269.434 225.744 269.117 225.203 268.469L226.012 267.793C226.369 268.22 226.846 268.426 227.442 268.408C228.034 268.395 228.602 268.161 229.146 267.707C229.677 267.264 230.005 266.788 230.13 266.279C230.254 265.779 230.158 265.339 229.843 264.962C229.539 264.597 229.169 264.425 228.735 264.444C228.3 264.471 227.66 264.697 226.815 265.12C225.965 265.547 225.286 265.812 224.777 265.916C224.264 266.024 223.812 266.016 223.419 265.894C223.027 265.771 222.673 265.521 222.357 265.143C221.843 264.527 221.681 263.826 221.873 263.04C222.059 262.258 222.553 261.533 223.354 260.865C224.204 260.155 225.065 259.783 225.938 259.749C226.809 259.724 227.508 260.026 228.034 260.656L227.224 261.332C226.798 260.886 226.293 260.682 225.707 260.721C225.12 260.768 224.525 261.043 223.923 261.546C223.36 262.015 223.009 262.518 222.87 263.055C222.73 263.592 222.818 264.049 223.133 264.427Z" fill="white"/>
<path d="M50.0767 244.149L42.1517 245.241L41.3987 244.246L50.5522 243.117L54.393 240.211L55.0453 241.073L51.2045 243.979L47.6247 252.474L46.8504 251.451L50.0767 244.149ZM48.8958 232.654C49.3837 233.299 49.6667 234.004 49.745 234.767C49.8197 235.526 49.684 236.265 49.3378 236.982C48.987 237.703 48.4588 238.331 47.7532 238.864L47.4518 239.092C46.7229 239.644 45.9604 240.001 45.1642 240.162C44.3644 240.319 43.6078 240.271 42.8942 240.017C42.1759 239.767 41.5941 239.348 41.1486 238.759C40.4521 237.838 40.216 236.871 40.4402 235.856C40.6562 234.84 41.3085 233.921 42.3972 233.097L42.8668 232.742L46.9609 238.152L47.1221 238.03C47.9819 237.38 48.5135 236.592 48.717 235.666C48.9122 234.74 48.727 233.903 48.1614 233.155C47.822 232.706 47.4414 232.374 47.0198 232.156C46.5946 231.934 46.0961 231.819 45.5242 231.811L45.5259 230.983C46.8851 230.925 48.0084 231.482 48.8958 232.654ZM41.8635 238.218C42.3408 238.849 42.9751 239.206 43.7665 239.291C44.5544 239.371 45.3738 239.162 46.2248 238.665L42.783 234.117L42.6919 234.186C41.9806 234.76 41.5446 235.417 41.3836 236.156C41.2227 236.895 41.3827 237.583 41.8635 238.218ZM40.0029 225.199C39.587 225.513 39.3802 225.934 39.3824 226.462C39.3812 226.984 39.565 227.635 39.9339 228.414C40.2982 229.196 40.5306 229.843 40.6312 230.355C40.7236 230.866 40.7056 231.313 40.5772 231.697C40.4452 232.076 40.19 232.408 39.8115 232.695C39.2134 233.147 38.5313 233.27 37.7652 233.064C36.9944 232.861 36.3138 232.369 35.7233 231.589C35.0834 230.743 34.781 229.907 34.8162 229.079C34.8431 228.25 35.193 227.582 35.8659 227.072L36.5023 227.914C36.0584 228.249 35.8307 228.716 35.8191 229.312C35.8041 229.904 36.0104 230.483 36.4382 231.048C36.8554 231.599 37.3151 231.95 37.8173 232.099C38.3113 232.247 38.7546 232.172 39.1471 231.875C39.5255 231.589 39.7156 231.228 39.7173 230.793C39.7107 230.357 39.5164 229.707 39.1342 228.843C38.7484 227.974 38.5158 227.283 38.4363 226.77C38.3532 226.252 38.3824 225.8 38.5237 225.414C38.665 225.028 38.9319 224.686 39.3244 224.389C39.9646 223.905 40.6724 223.777 41.448 224.006C42.2201 224.23 42.9207 224.758 43.5501 225.59C44.2183 226.473 44.5484 227.351 44.5404 228.224C44.5242 229.096 44.189 229.779 43.5348 230.274L42.8984 229.433C43.3643 229.029 43.5919 228.534 43.5812 227.947C43.5623 227.359 43.3159 226.751 42.8422 226.125C42.4002 225.541 41.9147 225.166 41.3854 225.001C40.8562 224.836 40.3954 224.902 40.0029 225.199Z" fill="white"/>
<path d="M251.564 58.3264L259.373 56.5901L260.205 57.5205L251.175 59.3939L247.584 62.6044L246.864 61.7985L250.454 58.588L253.327 49.8288L254.183 50.7854L251.564 58.3264ZM253.681 69.686C253.142 69.0833 252.802 68.4045 252.662 67.6497C252.525 66.8993 252.6 66.1524 252.887 65.409C253.177 64.6617 253.652 63.9932 254.312 63.4034L254.594 63.1515C255.275 62.5422 256.006 62.1245 256.786 61.8983C257.571 61.6765 258.329 61.6629 259.061 61.8573C259.797 62.0478 260.411 62.4182 260.903 62.9685C261.673 63.829 261.987 64.774 261.847 65.8036C261.714 66.8336 261.139 67.8036 260.122 68.7137L259.683 69.1062L255.16 64.0483L255.009 64.183C254.206 64.9017 253.74 65.7305 253.613 66.6696C253.494 67.609 253.747 68.4282 254.372 69.1271C254.747 69.5464 255.153 69.8471 255.591 70.0292C256.033 70.2158 256.54 70.2897 257.11 70.251L257.176 71.0763C255.826 71.2458 254.661 70.7823 253.681 69.686ZM260.235 63.5661C259.708 62.9765 259.046 62.6719 258.251 62.6523C257.459 62.6372 256.659 62.912 255.852 63.4769L259.654 67.729L259.739 67.6528C260.401 67.0217 260.782 66.3313 260.882 65.5816C260.982 64.832 260.766 64.1601 260.235 63.5661ZM263.154 76.3897C263.543 76.0421 263.714 75.6056 263.669 75.0802C263.627 74.5592 263.391 73.9256 262.96 73.1795C262.533 72.4295 262.248 71.8036 262.106 71.3018C261.972 70.8006 261.953 70.3534 262.05 69.9605C262.151 69.5719 262.378 69.2194 262.732 68.903C263.291 68.4031 263.96 68.2247 264.741 68.3679C265.526 68.5071 266.244 68.9415 266.896 69.6709C267.603 70.4615 267.973 71.2706 268.006 72.0982C268.047 72.9262 267.753 73.6215 267.124 74.1839L266.421 73.3977C266.836 73.0267 267.024 72.5434 266.987 71.9479C266.954 71.3568 266.701 70.797 266.228 70.2685C265.767 69.7531 265.281 69.4417 264.768 69.3342C264.263 69.2272 263.828 69.3377 263.461 69.6658C263.107 69.9821 262.947 70.357 262.981 70.7905C263.023 71.2244 263.27 71.8565 263.722 72.6868C264.177 73.5214 264.465 74.1911 264.587 74.6958C264.712 75.2049 264.72 75.6576 264.61 76.0541C264.501 76.4505 264.263 76.8127 263.896 77.1408C263.298 77.6759 262.603 77.8611 261.811 77.6966C261.023 77.5364 260.282 77.0676 259.587 76.2901C258.848 75.4646 258.448 74.6164 258.384 73.7456C258.329 72.8753 258.607 72.1667 259.219 71.6199L259.922 72.4061C259.49 72.8468 259.304 73.3592 259.363 73.9434C259.43 74.5281 259.725 75.1131 260.248 75.6984C260.736 76.2444 261.251 76.5781 261.792 76.6996C262.333 76.8211 262.787 76.7178 263.154 76.3897Z" fill="white"/>
</svg>
